<?xml version="1.0" encoding="UTF-8"?>
<!DOCTYPE svg PUBLIC "-//W3C//DTD SVG 1.1//EN" "http://www.w3.org/Graphics/SVG/1.1/DTD/svg11.dtd">
<!-- Creator: CorelDRAW 2019 (64-Bit) -->
<svg xmlns="http://www.w3.org/2000/svg" xml:space="preserve" width="254mm" height="254mm" version="1.1" style="shape-rendering:geometricPrecision; text-rendering:geometricPrecision; image-rendering:optimizeQuality; fill-rule:evenodd; clip-rule:evenodd"
viewBox="0 0 25400 25400"
 xmlns:xlink="http://www.w3.org/1999/xlink"
 xmlns:xodm="http://www.corel.com/coreldraw/odm/2003">
 <defs>
  <style type="text/css">
   <![CDATA[
    .fil0 {fill:#274F9B}
   ]]>
  </style>
 </defs>
 <g id="Слой_x0020_1">
  <metadata id="CorelCorpID_0Corel-Layer"/>
  <path class="fil0" d="M-1148.29 2738.87c-821.64,1480.55 -265.85,5913.82 -837.33,6061.72 7681.01,6.78 15003.03,331.09 22346.08,-2498.2 5465.59,-2105.9 9339.39,-5535.69 13260.07,-9775.91 -1878.17,-500.17 -3959.72,-438.3 -5982.14,-257.06 -4542.42,407.09 -8173.71,1177.78 -12792.23,1177.78 -4584.92,0 -8399.04,-606.06 -12783.16,-105.83 -2284.57,260.67 -2189.46,3556.22 -3211.29,5397.5z"/>
  <path class="fil0" d="M31272.06 17322.18c-1178.32,-2651.36 -1716.61,-5519.03 -2392.79,-8313.12 -788.72,22.87 -2705.3,1904.45 -3629.13,2439.37 -3513.65,2034.52 -3770.53,2769.84 -152.7,6256.27 1699.85,1638.12 4862.37,4368.31 7009.75,5591.86 445.31,171.1 402.01,-496.88 347.18,-629.79 -594.47,-1441.12 -345.83,-3462.4 -1182.31,-5344.59z"/>
 </g>
</svg>
