<?xml version="1.0" standalone="no"?>
<!DOCTYPE svg PUBLIC "-//W3C//DTD SVG 20010904//EN"
 "http://www.w3.org/TR/2001/REC-SVG-20010904/DTD/svg10.dtd">
<svg version="1.0" xmlns="http://www.w3.org/2000/svg"
 width="800.000000pt" height="387.000000pt" viewBox="0 0 800.000000 387.000000"
 preserveAspectRatio="xMidYMid meet">

<g transform="translate(0.000000,387.000000) scale(0.100000,-0.100000)"
fill="#000000" stroke="none">
<path d="M0 1935 l0 -1935 1935 0 1935 0 0 1935 0 1935 -1935 0 -1935 0 0
-1935z m1378 1009 c117 -48 182 -193 182 -404 0 -217 -66 -370 -179 -417 -41
-17 -124 -19 -166 -3 -63 24 -119 97 -152 199 -20 64 -28 271 -14 357 13 75
48 160 86 210 51 66 160 93 243 58z m-540 -411 l-3 -408 -77 -3 -78 -3 0 341
0 340 -90 0 -90 0 0 -340 0 -340 -75 0 -75 0 0 410 0 410 245 0 245 0 -2 -407z
m1042 283 c0 -149 5 -156 107 -156 l63 0 0 140 0 140 75 0 75 0 0 -410 0 -410
-75 0 -75 0 -2 198 -3 197 -90 5 c-104 7 -130 16 -178 64 -25 24 -38 50 -46
86 -12 55 -15 253 -4 263 3 4 39 7 80 7 l73 0 0 -124z m900 54 l0 -70 -60 0
-60 0 -2 -337 -3 -338 -77 -3 -78 -3 0 341 0 340 -60 0 -60 0 0 70 0 70 200 0
200 0 0 -70z m505 59 c23 -7 57 -28 81 -53 33 -33 44 -52 52 -96 15 -79 79
-650 73 -655 -8 -9 -151 -5 -151 3 0 5 -9 89 -20 188 -11 98 -20 185 -20 192
0 9 -24 12 -89 12 -72 0 -90 -3 -95 -16 -3 -9 -6 -64 -6 -123 0 -60 -3 -142
-6 -184 l-7 -77 -75 0 -75 0 6 198 c4 108 10 293 13 410 l7 212 136 0 c75 0
154 -5 176 -11z m-409 -1476 c7 -180 13 -370 14 -420 l0 -93 -64 0 -65 0 -5
43 c-3 23 -8 139 -11 257 -6 192 -9 234 -17 219 -2 -2 -42 -45 -90 -95 l-88
-91 0 -167 0 -166 -65 0 -65 0 0 405 0 405 65 0 64 0 3 -138 3 -138 150 156
c83 86 152 156 154 154 2 -2 9 -151 17 -331z m623 42 c6 -159 14 -350 17 -422
l6 -133 -70 0 -70 0 -6 218 c-4 119 -9 237 -12 262 l-6 45 -89 -95 -88 -95 -1
-167 0 -168 -70 0 -70 0 0 405 0 405 70 0 70 0 0 -137 1 -138 151 158 c83 86
152 156 153 155 2 -2 8 -133 14 -293z m-2384 261 c96 -41 152 -163 162 -356
12 -247 -51 -419 -172 -465 -126 -49 -236 43 -275 230 -17 77 -17 283 -1 358
42 194 157 287 286 233z m673 -58 l-3 -73 -50 -6 c-60 -7 -100 -27 -136 -66
-54 -57 -64 -89 -64 -208 0 -95 3 -116 22 -151 41 -77 130 -134 207 -134 26 0
26 -1 26 -75 0 -86 5 -83 -104 -60 -204 43 -321 224 -302 466 11 140 55 235
139 301 50 40 156 77 220 78 l48 0 -3 -72z m500 0 l-3 -73 -50 -6 c-87 -11
-144 -54 -182 -138 -23 -50 -23 -222 0 -272 37 -82 128 -149 205 -149 l32 0 0
-75 c0 -86 5 -83 -104 -60 -85 18 -141 50 -199 115 -128 142 -138 423 -21 591
52 76 175 137 277 138 l48 1 -3 -72z m-1701 27 c90 -45 135 -141 134 -292 0
-123 -23 -203 -71 -254 -30 -32 -44 -39 -74 -39 -20 0 -50 7 -66 15 l-30 16 0
-116 0 -115 -70 0 -70 0 0 398 c0 219 3 402 7 405 3 4 47 7 98 7 77 0 99 -4
142 -25z"/>
<path d="M1245 2794 c-40 -43 -50 -96 -50 -254 0 -159 12 -223 51 -265 50 -54
110 -18 140 81 25 81 25 286 1 366 -28 93 -93 125 -142 72z"/>
<path d="M3120 2730 l0 -70 81 0 81 0 -7 33 c-17 86 -39 107 -116 107 l-39 0
0 -70z"/>
<path d="M1008 1621 c-95 -75 -81 -532 18 -557 32 -8 49 0 70 31 61 93 59 456
-4 516 -29 28 -57 31 -84 10z"/>
<path d="M482 1478 c4 -152 16 -198 50 -198 29 0 48 58 48 142 0 119 -33 198
-83 198 -18 0 -19 -7 -15 -142z"/>
<path d="M4120 1935 l0 -1935 1940 0 1940 0 0 1935 0 1935 -1940 0 -1940 0 0
-1935z m3650 5 l0 -1710 -1710 0 -1710 0 0 1703 c0 937 3 1707 7 1710 3 4 773
7 1710 7 l1703 0 0 -1710z"/>
<path d="M6050 3255 c0 -7 -8 -19 -17 -24 -17 -10 -17 -10 0 -11 10 0 17 -8
17 -20 0 -11 5 -20 10 -20 6 0 10 9 10 19 0 11 8 22 18 24 16 4 16 5 0 6 -11
1 -18 9 -18 21 0 11 -4 20 -10 20 -5 0 -10 -7 -10 -15z"/>
<path d="M6037 3155 c-4 -8 1 -35 10 -61 15 -45 17 -47 26 -23 21 56 25 77 14
88 -16 16 -44 14 -50 -4z"/>
<path d="M5998 3139 c6 -14 13 -51 17 -82 4 -31 11 -57 16 -57 5 0 9 8 9 18 0
29 -28 124 -40 136 -8 8 -9 4 -2 -15z"/>
<path d="M6111 3123 c-16 -54 -25 -132 -13 -113 12 19 35 140 28 147 -2 3 -9
-12 -15 -34z"/>
<path d="M4746 3113 c-19 -115 0 -208 62 -303 69 -106 247 -263 337 -296 18
-7 18 -6 -2 20 -12 15 -27 42 -33 59 -7 19 -39 56 -82 91 -38 33 -87 82 -109
111 -41 54 -75 125 -60 125 13 0 117 -114 181 -198 42 -55 56 -68 58 -53 7 41
-152 289 -258 404 -39 42 -75 77 -80 77 -4 0 -10 -17 -14 -37z"/>
<path d="M7290 3073 c-108 -115 -260 -351 -260 -402 0 -16 21 4 79 77 121 151
188 213 159 145 -26 -60 -91 -141 -167 -208 -44 -38 -83 -81 -86 -94 -4 -14
-15 -37 -26 -53 l-21 -28 29 12 c104 45 270 197 335 308 21 35 42 88 49 118
12 58 4 202 -11 202 -4 0 -41 -35 -80 -77z"/>
<path d="M5926 3131 c-4 -5 4 -38 17 -73 17 -49 27 -63 42 -63 17 0 19 6 17
35 -2 19 -8 52 -13 73 -8 30 -14 37 -34 37 -13 0 -26 -4 -29 -9z"/>
<path d="M6142 3108 c-19 -59 -19 -112 -1 -116 12 -2 23 13 39 52 25 63 24 90
-7 94 -16 2 -23 -4 -31 -30z"/>
<path d="M5503 3056 c-15 -13 -25 -27 -21 -31 7 -7 98 40 98 50 0 15 -53 1
-77 -19z"/>
<path d="M5720 3066 c0 -8 -8 -17 -17 -19 -17 -4 -17 -5 0 -6 10 -1 17 -9 17
-21 0 -11 5 -20 10 -20 6 0 10 7 10 15 0 7 8 19 18 24 16 10 16 10 0 11 -10 0
-18 7 -18 15 0 8 -4 15 -10 15 -5 0 -10 -6 -10 -14z"/>
<path d="M6378 3058 c-10 -10 -13 -18 -8 -18 6 0 15 -10 20 -22 6 -17 9 -18 9
-6 1 9 7 21 14 25 11 6 10 11 -2 23 -14 13 -18 13 -33 -2z"/>
<path d="M6550 3075 c0 -10 91 -57 98 -50 11 11 -50 55 -75 55 -13 0 -23 -2
-23 -5z"/>
<path d="M5575 3013 c-37 -67 -41 -94 -16 -117 21 -19 21 -19 21 8 0 15 9 44
20 66 40 78 17 117 -25 43z"/>
<path d="M6517 3054 c-14 -14 -7 -59 14 -93 12 -19 19 -45 16 -58 -2 -12 -1
-23 3 -23 12 0 40 36 40 51 0 21 -65 131 -73 123z"/>
<path d="M5436 3017 c-16 -12 -16 -16 3 -65 11 -28 18 -58 15 -67 -4 -8 -3
-32 1 -53 l8 -37 13 30 c18 41 17 91 -5 152 -16 47 -20 51 -35 40z"/>
<path d="M6655 2970 c-13 -41 -16 -75 -12 -111 10 -84 29 -83 29 2 -1 29 6 68
14 87 18 43 18 68 0 75 -9 4 -19 -12 -31 -53z"/>
<path d="M5714 2976 c-3 -8 0 -25 7 -37 l12 -23 14 29 c13 23 13 29 1 36 -19
12 -28 11 -34 -5z"/>
<path d="M6381 2981 c-9 -6 -9 -14 0 -35 l13 -27 13 23 c7 13 12 26 13 29 0
11 -26 18 -39 10z"/>
<path d="M5992 2971 c-20 -12 9 -21 73 -21 29 0 61 3 70 6 30 12 -6 24 -70 24
-33 0 -66 -4 -73 -9z"/>
<path d="M5650 2961 c0 -18 35 -71 48 -71 15 0 15 20 2 54 -9 25 -50 38 -50
17z"/>
<path d="M5775 2960 c-4 -6 -10 -24 -15 -40 -7 -23 -5 -30 5 -30 12 0 55 58
55 74 0 10 -38 7 -45 -4z"/>
<path d="M6310 2963 c0 -18 41 -73 54 -73 11 0 13 7 6 30 -5 16 -11 34 -15 40
-7 11 -45 14 -45 3z"/>
<path d="M6435 2960 c-4 -6 -10 -24 -15 -40 -7 -23 -5 -30 6 -30 13 0 54 55
54 73 0 11 -38 8 -45 -3z"/>
<path d="M6056 2933 c-11 -11 -6 -23 9 -23 8 0 15 4 15 9 0 13 -16 22 -24 14z"/>
<path d="M5955 2916 c-16 -7 -39 -23 -49 -35 -19 -21 -19 -21 8 -21 35 0 83
25 96 50 9 17 8 20 -7 20 -10 -1 -31 -7 -48 -14z m35 -11 c0 -2 -13 -11 -30
-20 -33 -17 -40 -10 -12 11 17 13 42 19 42 9z"/>
<path d="M6120 2910 c13 -25 61 -50 96 -50 27 0 27 0 8 21 -20 23 -73 49 -99
49 -13 0 -14 -4 -5 -20z m60 -15 c19 -23 8 -26 -20 -5 -19 15 -21 20 -9 20 9
0 22 -7 29 -15z"/>
<path d="M4570 2862 c0 -74 25 -144 71 -195 74 -85 270 -199 387 -225 60 -14
44 12 -32 50 -33 17 -85 46 -115 65 -57 37 -161 130 -161 145 0 16 96 -41 200
-121 96 -73 126 -87 103 -47 -12 22 -284 269 -347 315 -31 23 -67 46 -81 51
-25 9 -25 9 -25 -38z"/>
<path d="M5402 2888 l-21 -23 25 0 c18 0 24 5 24 23 0 12 -1 22 -3 22 -2 0
-13 -10 -25 -22z"/>
<path d="M7484 2872 c-99 -65 -384 -328 -384 -355 0 -16 3 -16 18 -5 9 7 64
48 121 91 150 113 206 138 140 62 -41 -46 -138 -116 -237 -169 -159 -86 -64
-79 113 9 205 101 288 195 302 338 4 42 2 67 -4 67 -5 0 -36 -17 -69 -38z"/>
<path d="M6696 2886 c6 -15 44 -29 44 -17 0 11 -23 31 -37 31 -7 0 -10 -6 -7
-14z"/>
<path d="M5703 2863 c15 -2 39 -2 55 0 15 2 2 4 -28 4 -30 0 -43 -2 -27 -4z"/>
<path d="M6373 2863 c15 -2 37 -2 50 0 12 2 0 4 -28 4 -27 0 -38 -2 -22 -4z"/>
<path d="M5915 2838 c-22 -5 -86 -8 -142 -6 -95 3 -103 2 -103 -15 0 -42 72
-117 82 -86 2 6 18 3 38 -7 23 -12 35 -14 38 -6 2 6 10 8 18 5 10 -4 12 0 7
13 -5 12 -3 15 6 9 8 -4 17 -2 22 6 6 11 11 10 26 -3 24 -21 59 -31 84 -23 18
6 15 9 -21 27 -38 19 -40 22 -25 38 13 14 13 19 3 23 -10 4 -10 8 2 16 22 15
9 19 -35 9z m-130 -40 c-16 -6 -36 -15 -43 -21 -10 -8 -16 -7 -22 4 -10 15 19
26 70 27 23 0 23 0 -5 -10z"/>
<path d="M6170 2840 c0 -5 6 -11 13 -14 9 -5 9 -7 -1 -12 -10 -5 -10 -9 0 -21
10 -13 8 -19 -11 -34 -13 -11 -31 -19 -40 -19 -14 -1 -14 -2 2 -11 21 -13 71
-3 88 17 13 16 33 19 23 3 -4 -8 0 -9 15 -4 17 5 20 3 14 -11 -5 -12 -3 -15 6
-9 8 4 16 2 21 -5 6 -9 15 -8 40 5 25 13 34 14 40 5 11 -18 69 39 76 76 l6 31
-104 -5 c-56 -2 -122 1 -145 6 -24 5 -43 6 -43 2z m247 -44 c1 -1 -2 -7 -6
-15 -6 -9 -14 -10 -27 -3 -11 5 -30 15 -44 21 -21 9 -16 10 25 5 28 -4 51 -7
52 -8z"/>
<path d="M5627 2820 c3 -10 12 -25 21 -32 13 -11 15 -10 9 5 -4 10 -7 25 -7
33 0 8 -6 14 -14 14 -9 0 -12 -7 -9 -20z"/>
<path d="M6480 2826 c0 -8 -3 -23 -6 -33 -5 -16 -4 -16 10 1 18 22 21 46 6 46
-5 0 -10 -6 -10 -14z"/>
<path d="M5522 2798 c-16 -16 -15 -50 1 -72 10 -14 17 -15 41 -6 20 7 38 7 66
-1 26 -8 43 -8 56 -1 17 9 15 12 -15 29 -18 10 -46 28 -61 41 -31 24 -69 29
-88 10z m76 -46 c2 -7 -3 -12 -12 -12 -9 0 -16 7 -16 16 0 17 22 14 28 -4z"/>
<path d="M6514 2786 c-11 -11 -36 -29 -54 -39 -32 -17 -33 -20 -16 -29 14 -8
28 -8 51 1 24 8 40 8 65 0 29 -10 35 -10 47 6 16 22 17 40 3 66 -14 26 -68 24
-96 -5z m46 -37 c0 -5 -7 -9 -15 -9 -15 0 -20 12 -9 23 8 8 24 -1 24 -14z"/>
<path d="M5120 2671 c0 -74 41 -145 118 -203 61 -46 97 -63 74 -35 -5 6 -22
51 -36 100 -28 91 -64 145 -117 173 -15 7 -30 14 -34 14 -3 0 -5 -22 -5 -49z"/>
<path d="M6952 2697 c-17 -13 -40 -35 -50 -48 -18 -22 -94 -229 -85 -229 14 0
98 67 132 106 43 49 61 95 61 157 0 44 -13 47 -58 14z"/>
<path d="M5673 2695 c-34 -14 -48 -43 -38 -75 6 -19 8 -18 31 9 13 16 35 32
49 35 22 6 24 9 15 26 -12 23 -15 24 -57 5z"/>
<path d="M5900 2707 c0 -9 62 -137 66 -137 14 0 0 73 -18 100 -20 29 -48 51
-48 37z"/>
<path d="M5960 2696 c0 -20 73 -82 78 -66 6 17 -29 61 -56 71 -16 6 -22 5 -22
-5z"/>
<path d="M6143 2699 c-25 -9 -57 -53 -51 -69 4 -14 54 23 69 52 13 25 10 28
-18 17z"/>
<path d="M6186 2679 c-19 -22 -26 -42 -26 -72 l1 -42 25 50 c51 99 51 125 0
64z"/>
<path d="M6397 2692 c-16 -17 -15 -19 18 -31 19 -6 43 -23 54 -36 l19 -25 5
28 c10 50 -64 99 -96 64z"/>
<path d="M5794 2655 c28 -25 52 -43 54 -41 9 9 -22 48 -51 66 -54 33 -55 22
-3 -25z"/>
<path d="M5845 2690 c-3 -5 11 -30 32 -55 45 -55 55 -44 18 20 -27 45 -39 53
-50 35z"/>
<path d="M6231 2656 c-34 -65 -22 -71 29 -13 25 28 39 48 33 43 -7 -4 -13 -2
-13 3 0 26 -27 7 -49 -33z"/>
<path d="M6335 2682 c-36 -22 -58 -48 -53 -61 1 -6 26 10 53 34 52 46 52 58 0
27z"/>
<path d="M5768 2628 c14 -7 30 -32 43 -70 12 -32 25 -61 29 -63 4 -3 10 12 14
33 6 34 3 40 -35 75 -23 20 -49 37 -58 36 -11 0 -10 -3 7 -11z"/>
<path d="M6310 2603 c-37 -35 -40 -41 -34 -76 8 -46 16 -39 39 30 9 29 26 60
38 68 12 8 16 15 9 15 -7 0 -31 -17 -52 -37z"/>
<path d="M5300 2569 c0 -71 19 -118 66 -169 24 -26 44 -50 44 -53 0 -3 -18 0
-41 8 -41 15 -89 11 -89 -7 0 -20 31 -68 52 -79 21 -11 20 -13 -25 -26 -26 -7
-47 -20 -47 -27 0 -18 31 -44 68 -57 l32 -11 -25 -30 c-45 -53 -21 -75 58 -55
26 7 27 6 18 -12 -12 -21 -15 -94 -5 -104 10 -10 57 12 87 41 l27 26 0 -26 c0
-59 19 -72 56 -37 l21 20 38 -26 c43 -29 55 -22 55 32 0 22 4 31 13 28 6 -3
18 -1 25 3 10 7 8 17 -10 49 -21 36 -25 39 -48 31 -35 -14 -123 -5 -154 15
-34 23 -34 59 0 134 14 32 26 73 27 92 1 36 4 32 -128 145 -32 28 -71 70 -86
95 l-29 45 0 -45z"/>
<path d="M6037 2592 c-22 -24 -21 -37 5 -83 l21 -39 23 38 c28 45 30 64 6 85
-24 22 -35 21 -55 -1z"/>
<path d="M6800 2568 c-25 -39 -57 -71 -158 -156 -29 -24 -54 -53 -58 -66 -3
-14 5 -49 21 -87 14 -35 28 -80 31 -100 5 -32 3 -39 -19 -53 -32 -22 -117 -31
-155 -18 -29 10 -32 9 -52 -29 -22 -44 -20 -59 11 -59 15 0 19 -7 19 -33 0
-19 3 -37 6 -40 8 -7 36 7 58 28 14 14 18 14 45 -6 25 -18 33 -20 46 -9 8 7
15 26 15 43 l0 31 28 -26 c15 -15 39 -31 54 -37 25 -9 28 -8 34 14 6 26 3 56
-11 89 -7 16 -5 17 16 10 13 -4 37 -8 54 -9 39 0 43 24 11 61 l-24 29 41 20
c76 37 74 68 -4 81 l-36 6 33 32 c18 17 35 41 39 52 8 30 -31 39 -85 20 -22
-7 -40 -11 -40 -9 0 3 20 27 44 54 46 52 72 123 64 181 -3 26 -3 26 -28 -14z"/>
<path d="M5900 2541 c-5 -11 -10 -48 -10 -83 l0 -63 20 25 c26 33 34 63 26
105 -8 39 -20 45 -36 16z"/>
<path d="M6196 2544 c-11 -29 -6 -76 11 -105 25 -41 33 -36 33 21 0 72 -28
126 -44 84z"/>
<path d="M4450 2541 c0 -20 105 -105 165 -132 36 -17 151 -52 257 -79 106 -27
202 -52 212 -56 17 -6 16 -4 -4 24 -13 18 -31 34 -39 36 -9 2 -50 12 -91 21
-79 19 -207 71 -197 81 9 10 147 -23 236 -55 69 -25 86 -28 107 -19 24 11 22
13 -48 40 -144 56 -346 118 -433 133 -98 17 -165 19 -165 6z"/>
<path d="M5967 2497 c-19 -60 -22 -123 -7 -132 12 -8 58 42 66 72 6 22 -23
113 -36 113 -3 0 -14 -24 -23 -53z"/>
<path d="M6115 2506 c-20 -52 -15 -78 20 -121 21 -25 27 -28 35 -15 14 22 12
60 -6 116 -23 69 -29 72 -49 20z"/>
<path d="M7515 2535 c-117 -21 -280 -72 -483 -152 l-24 -9 25 -11 c20 -9 39
-6 108 19 91 32 227 63 236 54 11 -11 -108 -58 -212 -84 -58 -14 -105 -30
-105 -35 0 -6 -8 -19 -17 -30 -17 -20 -17 -20 2 -13 11 4 106 29 211 56 105
26 220 61 255 78 67 32 142 90 159 123 10 18 7 19 -37 18 -26 0 -79 -7 -118
-14z"/>
<path d="M5050 2522 c0 -4 14 -31 31 -60 41 -72 78 -94 151 -89 70 4 78 11 47
36 -63 51 -229 134 -229 113z"/>
<path d="M7015 2505 c-58 -24 -185 -104 -185 -116 0 -10 40 -19 84 -19 54 0
95 29 135 95 19 30 32 57 30 60 -3 2 -31 -7 -64 -20z"/>
<path d="M6046 2409 c-20 -30 -20 -48 1 -78 l16 -24 19 23 c23 28 23 48 -1 79
l-18 24 -17 -24z"/>
<path d="M5851 2397 c-8 -15 -31 -35 -52 -44 -46 -21 -45 -38 1 -38 41 0 73
38 68 80 l-3 29 -14 -27z"/>
<path d="M6260 2397 c0 -15 7 -42 16 -58 13 -26 20 -30 51 -27 36 3 61 28 28
28 -24 0 -64 29 -80 59 l-14 26 -1 -28z"/>
<path d="M5875 2336 c-34 -45 -89 -86 -116 -86 -10 0 -29 12 -43 27 l-25 26
-7 -26 c-13 -53 26 -107 77 -107 34 0 103 79 128 145 12 32 20 59 19 60 -2 1
-17 -16 -33 -39z"/>
<path d="M6190 2350 c-4 -43 0 -63 22 -117 22 -57 33 -65 43 -32 4 13 -3 40
-18 72 -14 29 -30 63 -36 77 l-10 25 -1 -25z"/>
<path d="M6225 2348 c27 -85 103 -178 146 -178 49 0 86 54 73 106 -8 30 -11
30 -36 -1 -33 -42 -64 -33 -131 35 -40 42 -56 54 -52 38z"/>
<path d="M5920 2341 c0 -10 -13 -43 -29 -73 -25 -46 -28 -58 -17 -73 10 -14
14 -14 22 -3 34 42 59 168 34 168 -5 0 -10 -8 -10 -19z"/>
<path d="M5092 2342 c-25 -17 31 -68 88 -82 45 -11 120 -7 120 6 0 3 -10 19
-22 37 -13 18 -23 33 -23 33 0 8 -153 13 -163 6z"/>
<path d="M6912 2341 c-34 -5 -46 -12 -63 -40 -11 -18 -18 -35 -16 -38 12 -11
77 -14 115 -4 53 15 98 52 89 74 -7 18 -40 20 -125 8z"/>
<path d="M5973 2307 c-31 -45 -29 -77 6 -112 l30 -28 -11 37 c-8 27 -8 42 0
61 13 29 16 75 5 75 -5 0 -18 -15 -30 -33z"/>
<path d="M6116 2325 c-3 -9 1 -33 10 -54 11 -28 12 -44 4 -65 -15 -41 -13 -42
20 -11 33 32 37 53 16 94 -21 40 -42 56 -50 36z"/>
<path d="M4503 2323 c-24 -2 -43 -8 -43 -12 0 -15 151 -82 229 -102 62 -16
105 -19 206 -17 155 4 183 22 48 31 -112 8 -209 27 -191 38 21 14 116 10 216
-7 116 -20 138 -13 47 14 -142 43 -385 69 -512 55z"/>
<path d="M7340 2315 c-101 -13 -230 -43 -281 -65 -27 -12 6 -9 131 10 84 13
177 13 185 0 3 -5 5 -10 3 -10 -2 0 -41 -7 -88 -15 -47 -8 -109 -15 -138 -15
-39 0 -52 -4 -50 -12 7 -20 241 -22 325 -3 67 15 243 92 243 105 0 9 -106 20
-174 19 -28 -1 -98 -7 -156 -14z"/>
<path d="M6032 2279 c-18 -28 -15 -74 7 -100 16 -20 23 -22 38 -13 39 24 41
119 3 119 -8 0 -20 3 -25 7 -6 4 -16 -2 -23 -13z"/>
<path d="M5100 2229 c-27 -11 -60 -38 -60 -50 0 -4 20 -15 45 -24 32 -13 58
-16 97 -11 74 9 84 17 63 49 -26 41 -92 57 -145 36z"/>
<path d="M6924 2229 c-36 -10 -64 -57 -42 -70 41 -26 145 -22 186 7 22 15 22
17 6 35 -17 19 -75 40 -104 38 -8 0 -29 -5 -46 -10z"/>
<path d="M5909 2155 c-22 -50 -20 -66 15 -108 l23 -29 22 37 c25 43 27 77 5
110 -27 42 -43 39 -65 -10z"/>
<path d="M6161 2174 c-12 -15 -21 -39 -21 -55 0 -26 29 -98 40 -99 11 0 50 68
50 88 0 25 -30 92 -41 92 -4 0 -17 -12 -28 -26z"/>
<path d="M5817 2172 c-21 -23 -22 -84 -2 -122 9 -17 18 -30 20 -30 12 0 35 63
35 95 0 37 -14 75 -29 75 -4 0 -15 -8 -24 -18z"/>
<path d="M6267 2170 c-17 -25 -7 -114 16 -137 15 -16 18 -14 32 20 23 56 20
102 -10 121 -22 15 -25 15 -38 -4z"/>
<path d="M4780 2150 c-82 -8 -241 -58 -255 -80 -28 -46 461 -21 564 28 33 15
33 16 12 26 -15 6 -38 5 -74 -3 -73 -17 -245 -27 -232 -13 9 10 117 32 220 45
56 7 -149 4 -235 -3z"/>
<path d="M7183 2144 c54 -8 110 -20 125 -27 26 -11 25 -12 -23 -15 -27 -2 -94
4 -147 13 -98 16 -145 11 -116 -12 36 -30 360 -69 477 -58 117 11 124 17 56
49 -85 40 -165 55 -326 60 l-144 5 98 -15z"/>
<path d="M5710 2138 c0 -15 32 -88 39 -88 16 0 31 26 31 56 0 29 -3 32 -35 36
-19 2 -35 0 -35 -4z"/>
<path d="M6383 2142 c-30 -3 -33 -6 -33 -35 0 -18 5 -39 10 -47 8 -13 11 -13
23 0 13 14 41 82 35 84 -2 1 -18 0 -35 -2z"/>
<path d="M5219 2130 c-61 -10 -102 -32 -119 -65 -12 -23 -12 -28 0 -36 23 -15
107 -2 146 22 33 20 74 79 55 79 -5 0 -15 2 -23 4 -7 2 -34 0 -59 -4z"/>
<path d="M6043 2128 c-34 -16 -36 -37 -7 -85 l26 -45 25 36 c28 42 27 73 -2
91 -14 9 -26 10 -42 3z"/>
<path d="M6838 2132 c-23 -5 -23 -8 4 -44 37 -52 145 -86 188 -58 13 8 12 13
-6 37 -33 46 -128 79 -186 65z"/>
<path d="M4942 2039 c-153 -28 -258 -86 -305 -168 l-18 -31 38 0 c56 0 145 25
253 72 52 23 120 52 150 64 88 37 36 40 -71 4 -51 -17 -107 -29 -124 -27 -28
3 -24 6 45 39 41 20 94 41 118 47 23 7 42 14 42 16 0 7 -13 5 -128 -16z"/>
<path d="M7060 2056 c0 -3 19 -10 43 -17 23 -6 76 -27 117 -47 70 -34 73 -36
43 -40 -17 -2 -73 11 -127 29 -57 19 -103 28 -113 24 -14 -6 -9 -10 22 -20 22
-7 92 -36 155 -64 116 -53 208 -81 268 -81 17 0 32 4 32 8 0 5 -13 27 -29 49
-51 70 -152 120 -291 143 -36 6 -77 13 -92 16 -16 3 -28 3 -28 0z"/>
<path d="M5773 2039 c-10 -10 -9 -15 5 -25 32 -24 43 -13 19 19 -9 14 -15 15
-24 6z"/>
<path d="M5856 2010 c-26 -39 -26 -41 -10 -73 19 -36 43 -67 55 -67 13 0 41
87 35 107 -4 10 -17 31 -30 46 l-23 28 -27 -41z"/>
<path d="M6216 2016 c-14 -19 -26 -44 -26 -55 0 -24 30 -91 41 -91 13 0 59 73
59 93 0 10 -11 34 -24 53 l-23 35 -27 -35z"/>
<path d="M6330 2030 c-15 -28 -4 -39 17 -17 13 12 14 20 6 28 -8 8 -14 5 -23
-11z"/>
<path d="M5235 2017 c-22 -13 -40 -29 -40 -37 0 -23 45 -33 91 -21 36 10 94
53 94 70 0 3 -24 7 -53 8 -38 2 -63 -4 -92 -20z"/>
<path d="M5987 2033 c-3 -5 -10 -25 -15 -47 -12 -42 1 -89 31 -114 13 -11 17
-10 25 5 6 10 13 35 17 56 6 30 3 44 -16 72 -24 35 -34 41 -42 28z"/>
<path d="M6101 2006 c-24 -38 -25 -54 -9 -107 13 -46 20 -48 47 -13 24 30 28
88 9 129 -15 33 -22 32 -47 -9z"/>
<path d="M6750 2023 c0 -20 71 -61 115 -68 27 -4 46 -2 59 8 23 17 16 31 -27
54 -38 21 -147 25 -147 6z"/>
<path d="M5733 1988 c-14 -6 -23 -20 -23 -33 0 -31 -24 -59 -44 -52 -14 6 -15
4 -2 -16 8 -12 21 -48 30 -80 14 -57 22 -75 29 -66 2 2 20 39 40 83 41 87 47
134 19 159 -21 19 -20 19 -49 5z"/>
<path d="M6348 1986 c-30 -22 -22 -82 22 -175 42 -92 45 -92 65 -1 4 19 14 47
21 62 18 35 18 37 -6 31 -16 -4 -20 1 -26 35 -4 29 -13 43 -31 51 -29 13 -24
13 -45 -3z"/>
<path d="M6970 1986 c0 -1 33 -19 74 -39 72 -36 169 -118 147 -125 -15 -5
-111 49 -179 100 -94 70 -65 35 63 -78 129 -112 171 -138 243 -150 50 -8 52
-2 17 65 -44 88 -104 128 -317 212 -26 10 -48 17 -48 15z"/>
<path d="M5011 1930 c-129 -56 -185 -101 -227 -185 -24 -49 -24 -50 -4 -53 11
-2 44 4 73 12 53 16 89 42 236 171 82 72 110 109 44 58 -50 -39 -152 -99 -182
-108 l-24 -7 21 29 c23 33 73 69 147 107 80 40 40 29 -84 -24z"/>
<path d="M5325 1957 c-77 -44 -87 -112 -12 -88 50 17 80 52 71 85 -8 31 -9 32
-59 3z"/>
<path d="M6745 1953 c-8 -33 35 -80 83 -89 30 -6 32 -5 32 24 0 32 -30 61 -83
81 -22 9 -26 7 -32 -16z"/>
<path d="M5465 1940 c-3 -5 -14 -10 -24 -10 -18 0 -82 -61 -100 -97 -11 -21
-9 -23 15 -23 59 0 134 63 134 113 0 20 -16 31 -25 17z"/>
<path d="M6640 1928 c0 -32 28 -75 63 -97 39 -24 87 -28 87 -7 0 24 -74 98
-112 111 -35 12 -38 11 -38 -7z"/>
<path d="M5137 1885 c-123 -102 -197 -206 -197 -278 0 -25 3 -27 23 -21 79 24
101 41 173 136 26 35 63 80 82 100 57 60 30 55 -50 -10 -81 -66 -118 -89 -118
-72 0 20 73 90 135 129 77 49 83 58 45 63 -25 4 -41 -5 -93 -47z"/>
<path d="M5590 1879 c0 -78 16 -133 51 -170 31 -33 76 -41 64 -11 -4 9 -18 52
-31 96 -44 147 -84 187 -84 85z"/>
<path d="M6500 1910 c-11 -16 -32 -68 -46 -114 -13 -46 -27 -92 -30 -100 -11
-28 26 -18 61 17 38 38 55 89 55 164 0 63 -12 73 -40 33z"/>
<path d="M6895 1930 c-35 -6 -33 -7 64 -72 63 -43 130 -112 118 -124 -8 -8
-91 50 -149 104 -30 28 -48 39 -48 30 0 -9 7 -21 15 -28 8 -7 47 -55 87 -107
71 -93 120 -133 181 -147 34 -8 36 10 7 87 -23 62 -98 150 -186 218 -49 37
-64 44 -89 39z"/>
<path d="M5499 1892 c-16 -40 -5 -120 19 -144 l20 -21 17 32 c11 21 15 51 13
88 -3 53 -5 57 -31 64 -24 7 -29 4 -38 -19z"/>
<path d="M6584 1913 c-17 -3 -23 -13 -26 -48 -7 -56 -1 -84 22 -115 l18 -24
21 35 c11 19 21 51 21 71 0 37 -18 89 -29 87 -3 -1 -16 -4 -27 -6z"/>
<path d="M5822 1865 c-16 -35 -15 -70 3 -105 9 -17 18 -30 20 -30 9 0 35 60
35 80 0 22 -29 80 -41 80 -3 0 -11 -11 -17 -25z"/>
<path d="M5919 1845 l-24 -46 21 -36 c12 -21 26 -39 32 -41 14 -4 42 50 42 82
0 24 -29 86 -41 86 -3 0 -17 -20 -30 -45z"/>
<path d="M6158 1862 c-22 -37 -23 -74 -3 -112 19 -36 21 -36 46 -7 26 31 25
89 -3 122 l-23 26 -17 -29z"/>
<path d="M6265 1860 c-18 -35 -19 -70 -3 -105 14 -32 20 -32 41 4 20 34 21 56
6 100 -14 39 -24 39 -44 1z"/>
<path d="M6040 1835 c-24 -40 -21 -82 9 -109 15 -13 20 -14 29 -3 27 32 31 63
12 105 -11 23 -21 42 -24 42 -2 0 -14 -16 -26 -35z"/>
<path d="M5293 1841 c-32 -9 -111 -106 -144 -176 -29 -63 -48 -145 -33 -145
21 0 114 62 132 87 11 15 40 63 65 106 39 65 43 77 28 77 -12 0 -31 -19 -49
-47 -41 -64 -112 -133 -112 -110 0 31 37 92 91 151 28 31 50 58 48 60 -2 1
-14 0 -26 -3z"/>
<path d="M6810 1843 c0 -3 23 -30 50 -61 52 -58 95 -133 88 -153 -5 -16 -71
52 -111 113 -19 30 -38 48 -50 48 -18 0 -18 -2 -5 -22 8 -13 34 -55 57 -95 41
-72 75 -105 140 -138 l34 -17 -5 50 c-6 67 -48 150 -109 216 -41 45 -89 77
-89 59z"/>
<path d="M5449 1828 c0 -2 -9 -41 -19 -88 -21 -99 -36 -140 -50 -140 -15 0
-12 27 10 114 12 43 19 81 16 84 -3 3 -22 -31 -43 -74 -29 -61 -38 -94 -41
-144 -4 -84 7 -102 44 -74 46 34 63 65 78 139 19 96 26 185 15 185 -5 0 -9 -1
-10 -2z"/>
<path d="M6665 1772 c18 -167 38 -221 98 -266 39 -29 49 -10 44 77 -4 54 -12
84 -42 143 -21 41 -41 74 -45 74 -4 0 1 -28 12 -62 10 -35 17 -81 16 -103 l-4
-40 -17 38 c-10 21 -23 72 -30 113 -7 43 -17 76 -25 79 -11 4 -12 -7 -7 -53z"/>
<path d="M6627 1737 c-4 -10 -7 -44 -7 -75 0 -76 -15 -98 -29 -46 -6 21 -11
53 -11 69 0 17 -5 37 -11 45 -14 21 -2 -105 18 -188 14 -55 18 -62 30 -49 21
21 38 154 27 213 -7 36 -11 44 -17 31z"/>
<path d="M5480 1665 c0 -114 27 -202 50 -164 9 14 26 103 35 189 5 40 3 52 -5
44 -6 -6 -13 -37 -16 -69 -9 -113 -31 -111 -36 4 -2 41 -8 66 -15 69 -10 3
-13 -16 -13 -73z"/>
<path d="M5596 1710 c20 -122 55 -213 75 -193 14 14 7 145 -8 150 -8 3 -10 -8
-6 -36 7 -53 -12 -55 -26 -3 -6 20 -11 44 -11 52 -1 8 -7 26 -15 40 -14 25
-14 25 -9 -10z"/>
<path d="M5864 1708 c-13 -26 -14 -38 -5 -70 7 -21 15 -38 20 -38 4 0 16 18
26 40 15 33 16 44 5 70 -16 38 -25 38 -46 -2z"/>
<path d="M5975 1708 c-11 -18 -23 -41 -27 -50 -8 -21 22 -110 36 -105 18 6 46
72 46 108 0 20 -8 47 -18 58 l-17 22 -20 -33z"/>
<path d="M6118 1723 c-36 -39 -30 -99 15 -157 14 -19 15 -19 31 12 22 43 20
80 -7 125 -22 36 -24 37 -39 20z"/>
<path d="M6221 1721 c-16 -28 -14 -59 6 -92 22 -37 29 -37 43 5 12 36 3 73
-23 95 -13 10 -17 9 -26 -8z"/>
<path d="M6517 1713 c-3 -10 -11 -42 -17 -70 -14 -62 -34 -71 -28 -13 4 46 -8
53 -23 13 -12 -32 -3 -133 12 -133 17 0 57 102 64 163 7 54 2 77 -8 40z"/>
<path d="M6041 1592 c-26 -52 -26 -77 1 -149 l21 -58 20 44 c26 61 26 129 0
171 l-21 33 -21 -41z"/>
<path d="M5892 1581 c-27 -37 -28 -62 -4 -85 18 -15 20 -15 35 2 20 22 21 46
4 85 l-12 29 -23 -31z"/>
<path d="M6202 1584 c-17 -36 -15 -68 6 -88 18 -15 20 -15 35 2 23 25 21 42
-6 80 l-24 32 -11 -26z"/>
<path d="M5804 1512 c-21 -16 -46 -37 -54 -47 -14 -17 -13 -18 14 -11 17 4 44
13 62 21 27 11 31 17 27 39 -3 14 -6 26 -8 26 -1 0 -20 -13 -41 -28z"/>
<path d="M6280 1531 c0 -5 -3 -17 -6 -25 -6 -17 28 -36 92 -52 27 -7 28 -6 15
10 -21 26 -101 79 -101 67z"/>
<path d="M5954 1489 c-16 -17 -46 -40 -67 -50 -59 -31 -60 -68 -1 -69 28 0 90
68 99 110 9 43 3 45 -31 9z"/>
<path d="M6140 1507 c0 -81 101 -169 140 -122 16 19 9 28 -54 64 -30 16 -61
40 -70 53 -13 19 -16 19 -16 5z"/>
<path d="M5179 1474 c-18 -22 12 -76 65 -115 50 -37 90 -36 93 1 3 29 -28 67
-83 105 -43 29 -57 31 -75 9z"/>
<path d="M6859 1456 c-74 -56 -92 -118 -37 -124 20 -2 39 7 74 40 52 48 66 75
52 101 -13 26 -40 21 -89 -17z"/>
<path d="M5845 1463 c-34 -18 -75 -53 -75 -65 0 -17 40 -7 50 13 6 11 25 28
41 38 38 23 25 35 -16 14z"/>
<path d="M6246 1473 c-3 -3 7 -14 23 -24 16 -10 32 -27 36 -38 6 -21 55 -31
55 -12 0 20 -102 86 -114 74z"/>
<path d="M5997 1446 c-11 -29 -8 -75 7 -104 8 -15 17 -43 21 -63 5 -29 2 -39
-21 -62 -35 -35 -7 -38 33 -3 l28 24 28 -24 c39 -33 69 -33 33 1 -31 29 -33
57 -6 120 22 50 25 91 10 115 -7 11 -11 8 -20 -15 -26 -72 -34 -91 -41 -99 -7
-8 -25 24 -58 108 -7 18 -8 18 -14 2z"/>
<path d="M5690 1413 c-57 -15 -94 -39 -84 -54 14 -23 120 16 142 52 14 22 14
22 -58 2z"/>
<path d="M6375 1411 c48 -47 134 -76 150 -51 8 14 -36 39 -97 56 -70 18 -76
18 -53 -5z"/>
<path d="M5150 1400 c0 -14 -10 -50 -21 -80 -43 -110 -24 -208 60 -314 17 -21
31 -43 31 -47 0 -5 27 -9 60 -9 33 0 60 4 60 10 0 6 -8 10 -19 10 -92 0 -141
95 -91 177 21 36 82 60 124 49 39 -10 77 -48 85 -86 7 -34 8 -34 19 -13 23 42
-20 97 -95 123 -43 16 -104 -2 -144 -42 -30 -31 -31 -31 -24 -8 15 51 38 91
65 114 l28 23 -29 17 c-17 10 -48 36 -69 59 -38 39 -40 40 -40 17z"/>
<path d="M6930 1378 c-19 -22 -49 -47 -67 -56 l-33 -15 30 -18 c30 -19 56 -60
71 -113 l9 -30 -34 33 c-40 39 -96 54 -147 41 -54 -15 -109 -84 -91 -115 6
-12 12 -8 25 20 19 39 69 75 105 75 37 0 86 -28 105 -59 47 -79 -7 -171 -100
-171 -7 0 -13 -4 -13 -10 0 -6 27 -10 60 -10 35 0 60 4 60 10 0 6 18 34 40 63
78 104 88 173 44 313 -15 46 -27 84 -28 83 0 0 -17 -19 -36 -41z"/>
<path d="M5695 1353 l-29 -16 24 -9 c19 -7 29 -4 49 17 23 23 24 25 6 25 -11
-1 -33 -8 -50 -17z"/>
<path d="M5766 1339 c-28 -33 -33 -68 -14 -87 16 -16 43 -15 58 3 10 13 9 15
-8 15 -47 0 -40 58 10 82 33 17 33 17 6 17 -18 1 -35 -9 -52 -30z"/>
<path d="M5930 1332 c-18 -23 -50 -53 -72 -68 -22 -15 -44 -36 -49 -47 -21
-37 34 -8 90 49 29 30 56 53 58 50 13 -12 -10 -57 -44 -88 -74 -67 -93 -87
-93 -98 0 -17 39 -3 80 29 38 30 90 114 89 146 0 11 -6 31 -13 44 l-13 24 -33
-41z"/>
<path d="M6150 1344 c-16 -41 -4 -87 33 -135 35 -46 70 -74 105 -84 33 -9 27
9 -15 47 -81 72 -103 100 -103 126 0 25 3 24 54 -29 49 -52 90 -78 102 -66 3
3 -9 18 -27 33 -18 16 -56 53 -85 83 l-53 54 -11 -29z"/>
<path d="M6321 1347 c42 -28 48 -70 11 -75 -19 -3 -21 -6 -11 -18 25 -30 69
-9 69 32 0 33 -47 84 -77 84 -25 0 -25 -1 8 -23z"/>
<path d="M6387 1345 c19 -26 27 -28 58 -16 18 7 17 9 -12 24 -18 10 -39 17
-48 17 -14 0 -14 -3 2 -25z"/>
<path d="M5570 1326 c0 -12 10 -16 40 -16 22 0 40 -4 40 -10 0 -5 11 -10 25
-10 13 0 29 -8 34 -17 10 -17 10 -17 11 0 0 19 -57 49 -117 62 -26 5 -33 3
-33 -9z"/>
<path d="M6476 1320 c-54 -21 -84 -45 -72 -57 4 -4 12 0 17 10 6 9 21 17 34
17 14 0 25 5 25 10 0 6 18 10 41 10 28 0 39 4 37 13 -7 19 -29 18 -82 -3z"/>
<path d="M5570 1268 c-12 -13 -47 -75 -78 -138 -36 -73 -64 -116 -75 -118 -10
-2 -37 6 -62 18 -41 20 -46 20 -74 5 -42 -21 -39 -32 12 -40 23 -4 58 -15 77
-25 19 -9 47 -20 62 -24 24 -5 28 -3 34 21 12 47 70 156 108 199 20 23 56 50
81 60 25 11 45 23 45 27 0 14 -28 19 -49 7 -18 -9 -21 -8 -21 10 0 27 -33 26
-60 -2z"/>
<path d="M6500 1269 c0 -16 -4 -19 -17 -14 -29 12 -46 11 -50 -2 -3 -7 2 -13
9 -13 8 0 34 -13 59 -29 54 -33 119 -126 150 -212 20 -55 23 -58 48 -52 14 3
42 14 61 23 19 10 54 21 78 25 51 8 54 21 7 41 -32 13 -38 12 -79 -7 -24 -12
-51 -19 -60 -16 -8 3 -41 57 -72 119 -31 62 -65 123 -77 136 -26 28 -57 29
-57 1z"/>
<path d="M6041 1158 c-11 -18 -53 -66 -93 -106 -72 -73 -73 -74 -33 -57 22 9
50 23 63 31 18 12 30 13 56 4 24 -7 41 -8 61 0 25 9 37 7 87 -20 32 -17 58
-29 58 -26 0 3 -22 26 -49 51 -27 26 -66 71 -87 101 -20 30 -38 54 -40 54 -1
0 -11 -15 -23 -32z"/>
<path d="M5910 1101 c-41 -43 -86 -84 -99 -93 -15 -8 -21 -19 -17 -26 14 -24
170 111 207 179 22 42 -19 15 -91 -60z"/>
<path d="M6120 1173 c0 -16 105 -130 153 -166 37 -28 53 -35 61 -26 8 8 6 14
-9 22 -11 7 -57 49 -103 94 -75 76 -102 96 -102 76z"/>
<path d="M5620 1110 c0 -42 2 -48 19 -43 15 4 39 -23 119 -137 86 -120 102
-139 110 -123 8 15 -7 43 -85 152 -77 108 -94 137 -86 150 9 14 4 20 -33 33
l-44 16 0 -48z"/>
<path d="M6463 1141 c-40 -14 -57 -31 -32 -31 6 0 9 -7 5 -15 -11 -30 -290
-414 -297 -409 -4 2 -29 44 -55 92 -26 48 -58 106 -72 130 l-25 43 -69 -108
c-85 -131 -83 -129 -103 -113 -13 11 -15 6 -15 -39 0 -28 2 -51 5 -51 2 0 23
7 45 16 33 13 38 19 29 30 -9 11 0 32 45 100 32 48 61 82 66 78 5 -5 40 -65
78 -133 l70 -124 43 60 c24 33 100 139 169 236 96 134 128 173 138 165 19 -16
24 -5 20 44 l-3 45 -42 -16z"/>
<path d="M6042 976 l21 -29 19 23 c25 31 23 35 -21 35 l-39 1 20 -30z"/>
<path d="M5650 944 c-25 -8 -78 -17 -117 -21 -55 -4 -73 -10 -73 -21 0 -12 11
-14 58 -9 87 8 204 37 199 50 -5 16 -17 16 -67 1z"/>
<path d="M6406 951 c-9 -14 21 -26 118 -45 98 -21 146 -21 146 -1 0 11 -11 15
-42 15 -38 0 -134 18 -194 35 -12 4 -25 2 -28 -4z"/>
<path d="M5360 941 c0 -14 33 -31 61 -31 20 0 21 2 9 14 -20 19 -70 32 -70 17z"/>
<path d="M6724 940 c-31 -12 -39 -30 -14 -30 26 0 60 17 60 30 0 12 -17 12
-46 0z"/>
<path d="M6104 889 c-20 -40 -24 -57 -16 -73 9 -20 11 -19 28 17 10 20 21 37
25 37 4 0 17 -16 29 -35 23 -37 37 -44 46 -21 6 15 -63 126 -77 126 -5 0 -20
-23 -35 -51z"/>
<path d="M5234 915 c-4 -8 -1 -22 6 -30 10 -12 16 -13 39 0 14 7 35 20 46 29
19 14 17 15 -33 16 -38 0 -54 -4 -58 -15z"/>
<path d="M6795 920 c4 -6 24 -19 45 -30 33 -17 40 -17 50 -5 23 28 4 45 -50
45 -32 0 -49 -4 -45 -10z"/>
<path d="M5323 890 c-39 -24 -44 -50 -9 -50 26 0 70 45 60 61 -8 13 -15 11
-51 -11z"/>
<path d="M6755 899 c-10 -16 35 -59 62 -59 34 0 29 27 -9 50 -38 23 -44 24
-53 9z"/>
<path d="M5391 875 c-37 -32 -40 -44 -7 -38 33 7 63 40 49 54 -7 7 -20 2 -42
-16z"/>
<path d="M6694 885 c-8 -21 4 -33 44 -44 38 -11 41 -2 10 26 -36 32 -48 36
-54 18z"/>
<path d="M5914 735 c-7 -16 66 -126 78 -118 5 2 20 27 34 54 18 36 22 54 15
66 -8 15 -13 12 -32 -21 l-23 -39 -23 29 c-12 16 -23 32 -23 37 0 13 -20 7
-26 -8z"/>
<path d="M6256 735 c-3 -8 -3 -21 0 -29 3 -7 -3 -17 -13 -20 -15 -6 -13 -9 13
-20 75 -32 74 -33 74 24 0 48 -1 50 -20 40 -16 -9 -22 -8 -26 5 -8 19 -20 19
-28 0z"/>
</g>
</svg>
